<svg width="150" height="24" viewBox="0 0 150 24" fill="none" xmlns="http://www.w3.org/2000/svg">
<path fill-rule="evenodd" clip-rule="evenodd" d="M78.0059 11.2277C77.5611 10.4124 76.9468 9.79059 76.163 9.36213C75.3797 8.93367 74.4863 8.71924 73.4835 8.71924C71.9167 8.71924 70.6811 9.32774 69.7775 10.5435L69.5443 8.84385H68.0404V23.5616H69.7775V17.7991C70.1305 18.3372 70.6175 18.7628 71.2388 19.0739C71.8601 19.3846 72.6083 19.54 73.4835 19.54C74.4719 19.54 75.3619 19.3118 76.1523 18.8562C76.9431 18.3999 77.5611 17.7647 78.0059 16.949C78.4503 16.1338 78.6731 15.1943 78.6731 14.1298C78.6731 13.0103 78.4503 12.0434 78.0059 11.2277ZM75.9092 16.9381C75.2527 17.6639 74.3871 18.0268 73.3148 18.0268C72.622 18.0268 72.0048 17.861 71.4612 17.5296C70.9176 17.1978 70.4976 16.7313 70.2008 16.1301C69.9044 15.5289 69.7564 14.8484 69.7564 14.0882C69.7564 13.3421 69.9044 12.6753 70.2008 12.0879C70.4976 11.5008 70.9176 11.0444 71.4612 10.7199C72.0048 10.3951 72.622 10.2324 73.3148 10.2324C74.3871 10.2324 75.2527 10.5953 75.9092 11.3208C76.5652 12.0466 76.8935 12.9828 76.8935 14.1298C76.8935 15.2768 76.5652 16.2131 75.9092 16.9381Z" fill="#030E2F"/>
<path fill-rule="evenodd" clip-rule="evenodd" d="M136.413 13.6739C135.799 13.4805 135.018 13.3284 134.073 13.2179C133.395 13.135 132.89 13.0589 132.558 12.9897C132.226 12.9209 131.955 12.7894 131.743 12.5956C131.531 12.4023 131.425 12.1259 131.425 11.7666C131.425 11.2827 131.651 10.8927 132.103 10.5954C132.555 10.2984 133.148 10.1499 133.882 10.1499C134.602 10.1499 135.202 10.3291 135.682 10.6888C136.162 11.0481 136.438 11.5045 136.508 12.0567H138.245C138.161 10.9785 137.719 10.1499 136.922 9.56931C136.123 8.98872 135.089 8.69904 133.818 8.69904C133.042 8.69904 132.343 8.83336 131.722 9.10282C131.1 9.37268 130.61 9.74895 130.25 10.2328C129.89 10.7167 129.71 11.2694 129.71 11.8913C129.71 12.5823 129.893 13.1244 130.26 13.5185C130.627 13.9118 131.107 14.1986 131.701 14.3787C132.294 14.5583 133.056 14.7032 133.988 14.8136C134.651 14.8966 135.164 14.9799 135.523 15.0628C135.884 15.1458 136.177 15.2979 136.402 15.5188C136.628 15.7397 136.741 16.0577 136.741 16.4724C136.741 16.9559 136.505 17.3459 136.032 17.6433C135.559 17.9411 134.941 18.0888 134.179 18.0888C133.317 18.0888 132.615 17.8889 132.071 17.488C131.527 17.0874 131.242 16.5687 131.214 15.9331H129.477C129.491 17.0664 129.925 17.9508 130.779 18.5868C131.633 19.2224 132.767 19.54 134.179 19.54C134.969 19.54 135.689 19.4089 136.339 19.146C136.988 18.8842 137.504 18.5104 137.885 18.0269C138.266 17.5434 138.457 16.9838 138.457 16.3474C138.457 15.6151 138.27 15.0353 137.896 14.6065C137.521 14.1784 137.027 13.8677 136.413 13.6739Z" fill="#030E2F"/>
<path fill-rule="evenodd" clip-rule="evenodd" d="M148.056 8.84387L144.113 17.4673L140.788 8.84387H138.946L143.182 19.4988L142.631 20.7631C142.475 21.1357 142.344 21.4024 142.239 21.5614C142.133 21.72 141.996 21.8341 141.826 21.9032C141.656 21.9724 141.402 22.0072 141.063 22.0072H139.517V23.5617H141.593C142.086 23.5617 142.482 23.4856 142.779 23.3339C143.076 23.1813 143.322 22.9467 143.52 22.6291C143.718 22.3107 143.944 21.8341 144.198 21.1984L149.899 8.84387H148.056Z" fill="#030E2F"/>
<path fill-rule="evenodd" clip-rule="evenodd" d="M65.5295 12.5026C64.6399 11.9293 63.4539 11.5178 61.9711 11.269C61.0393 11.1172 60.3051 10.9615 59.7685 10.8029C59.232 10.6439 58.7942 10.4088 58.4552 10.0981C58.1166 9.78695 57.9467 9.35526 57.9467 8.80218C57.9467 8.04236 58.2361 7.45166 58.8153 7.03008C59.3944 6.60849 60.1778 6.3977 61.1666 6.3977C62.1546 6.3977 62.9805 6.6534 63.6444 7.1648C64.3079 7.67621 64.6965 8.35349 64.8094 9.19625H66.6307C66.5741 8.32557 66.3133 7.55523 65.847 6.88483C65.3811 6.21483 64.7457 5.6929 63.9408 5.31987C63.136 4.94684 62.2112 4.75992 61.1666 4.75992C60.1778 4.75992 59.2989 4.93308 58.53 5.2782C57.7595 5.62412 57.1634 6.11085 56.7397 6.73958C56.3159 7.36872 56.1043 8.09051 56.1043 8.90576C56.1043 10.1774 56.5421 11.0966 57.4176 11.663C58.2927 12.2299 59.4721 12.6373 60.9545 12.8861C61.8863 13.0382 62.6242 13.1936 63.1678 13.3526C63.7114 13.5116 64.1562 13.7564 64.5022 14.0882C64.8482 14.4199 65.021 14.869 65.021 15.4358C65.021 16.2098 64.7068 16.8143 64.0785 17.2496C63.4501 17.685 62.6279 17.9026 61.611 17.9026C60.4812 17.9026 59.5494 17.6089 58.8153 17.021C58.0811 16.434 57.6785 15.6503 57.6086 14.6687H55.7868C55.829 15.6224 56.0865 16.4692 56.5598 17.2075C57.0327 17.9475 57.7 18.5213 58.561 18.9283C59.4221 19.3365 60.432 19.54 61.5899 19.54C62.6209 19.54 63.5349 19.3608 64.3327 19.0011C65.1306 18.6414 65.7519 18.1377 66.1967 17.4879C66.6415 16.8382 66.8639 16.099 66.8639 15.27C66.8639 13.9987 66.4191 13.0763 65.5295 12.5026Z" fill="#030E2F"/>
<path fill-rule="evenodd" clip-rule="evenodd" d="M94.748 9.27881C94.2536 9.56971 93.851 9.9565 93.5405 10.4396L93.3078 8.84387H91.8039V19.4154H93.5405V14.0259C93.5405 13.031 93.7629 12.1951 94.2077 11.5178C94.6525 10.8413 95.3904 10.5019 96.421 10.5019H97.2895V8.84387H96.8026C95.9266 8.84387 95.242 8.98872 94.748 9.27881Z" fill="#030E2F"/>
<path fill-rule="evenodd" clip-rule="evenodd" d="M108.499 12.8651H115.216V11.2067H108.499V6.56319H116.486V4.90518H106.656V19.4154H116.762V17.7574H108.499V12.8651Z" fill="#030E2F"/>
<path fill-rule="evenodd" clip-rule="evenodd" d="M100.383 17.581C100.206 17.3945 100.118 17.0805 100.118 16.6375V10.3987H102.85V8.84387H100.118V5.87903H98.3817V16.6589C98.3817 17.6121 98.5963 18.3105 99.0274 18.7527C99.4578 19.1949 100.182 19.4154 101.199 19.4154H103.19V17.861H101.305C100.867 17.861 100.559 17.7675 100.383 17.581Z" fill="#030E2F"/>
<path fill-rule="evenodd" clip-rule="evenodd" d="M89.7659 11.3102C89.3137 10.4954 88.682 9.85897 87.8706 9.403C87.0583 8.94702 86.1298 8.71924 85.0852 8.71924C84.0401 8.71924 83.1117 8.94702 82.2998 9.403C81.4883 9.85897 80.8562 10.4954 80.4048 11.3102C79.9526 12.1259 79.7264 13.0658 79.7264 14.1298C79.7264 15.1939 79.9526 16.1338 80.4048 16.949C80.8562 17.7643 81.4883 18.4003 82.2998 18.8563C83.1117 19.3122 84.0401 19.5396 85.0852 19.5396C86.1298 19.5396 87.0583 19.3122 87.8706 18.8563C88.682 18.4003 89.3137 17.7643 89.7659 16.949C90.2178 16.1338 90.4443 15.1939 90.4443 14.1298C90.4443 13.0658 90.2178 12.1259 89.7659 11.3102ZM88.2199 16.1406C87.9235 16.7346 87.5031 17.1974 86.9594 17.5292C86.4163 17.861 85.7912 18.0272 85.0852 18.0272C84.3795 18.0272 83.7541 17.861 83.2113 17.5292C82.6673 17.1974 82.2473 16.7346 81.9509 16.1406C81.6541 15.5463 81.5065 14.8763 81.5065 14.1298C81.5065 13.3834 81.6541 12.7129 81.9509 12.1186C82.2473 11.5251 82.6673 11.0614 83.2113 10.7301C83.7541 10.3983 84.3795 10.2328 85.0852 10.2328C85.7912 10.2328 86.4163 10.3983 86.9594 10.7301C87.5031 11.0614 87.9235 11.5251 88.2199 12.1186C88.5167 12.7129 88.6647 13.3834 88.6647 14.1298C88.6647 14.8763 88.5167 15.5463 88.2199 16.1406Z" fill="#030E2F"/>
<path fill-rule="evenodd" clip-rule="evenodd" d="M127.82 17.861C127.34 17.861 127.1 17.6057 127.1 17.0939V12.5333C127.1 11.3038 126.722 10.3607 125.966 9.70401C125.211 9.04777 124.141 8.71924 122.758 8.71924C121.459 8.71924 120.403 9.00933 119.591 9.58992C118.779 10.1705 118.31 10.9789 118.183 12.0154H119.919C120.032 11.4765 120.332 11.0444 120.82 10.7199C121.307 10.3951 121.924 10.2324 122.673 10.2324C123.52 10.2324 124.18 10.4262 124.654 10.813C125.126 11.2002 125.363 11.7391 125.363 12.4297V13.1552H122.186C120.774 13.1552 119.697 13.4388 118.956 14.0056C118.215 14.572 117.844 15.3877 117.844 16.4514C117.844 17.405 118.207 18.1583 118.935 18.711C119.662 19.2637 120.626 19.54 121.826 19.54C123.407 19.54 124.614 18.9529 125.448 17.778C125.462 18.3169 125.617 18.7248 125.914 19.0011C126.21 19.2778 126.704 19.4154 127.396 19.4154H128.349V17.861H127.82ZM125.363 15.1041C125.363 16.0023 125.059 16.7245 124.452 17.2703C123.845 17.8165 123.012 18.0891 121.953 18.0891C121.233 18.0891 120.661 17.9301 120.237 17.6117C119.814 17.2945 119.602 16.8729 119.602 16.3474C119.602 15.1733 120.407 14.5858 122.017 14.5858H125.363V15.1041Z" fill="#030E2F"/>
<path fill-rule="evenodd" clip-rule="evenodd" d="M0 23.3788V15.6782H6.09041V18.5306H17.1927V15.7069C17.1927 15.4031 17.0906 15.1462 16.8868 14.937C16.6826 14.7278 16.435 14.6044 16.1435 14.566L3.67169 13.3397C3.14711 13.2826 2.66179 13.1451 2.21451 12.9262C1.76805 12.7077 1.37947 12.4176 1.04917 12.0563C0.718878 11.6954 0.461752 11.2864 0.276969 10.83C0.0925984 10.3736 0 9.88893 0 9.3755V4.55562C0 4.00456 0.107067 3.48588 0.319961 3.00118C0.533681 2.51648 0.824705 2.09368 1.19344 1.73198C1.56219 1.37109 1.99376 1.08585 2.48817 0.876676C2.98299 0.667503 3.51171 0.562714 4.07474 0.562714H19.2084C19.771 0.562714 20.3001 0.667503 20.7945 0.876676C21.2894 1.08585 21.7214 1.37109 22.0901 1.73198C22.4588 2.09368 22.7499 2.51648 22.9628 3.00118C23.1765 3.48588 23.2827 4.00456 23.2827 4.55562V8.26328H17.1927V6.55186C17.1927 6.229 17.0807 5.95793 16.8566 5.73904C16.6326 5.52097 16.3552 5.41132 16.0237 5.41132H7.25906C6.92793 5.41132 6.65014 5.52097 6.42608 5.73904C6.20244 5.95793 6.09041 6.229 6.09041 6.55186V7.66408C6.09041 7.96874 6.18756 8.22525 6.38185 8.43442C6.57614 8.6436 6.8188 8.7674 7.11024 8.80503L19.6114 10.0313C20.1166 10.0884 20.5924 10.2268 21.0393 10.4448C21.4861 10.6637 21.8747 10.9538 22.2046 11.3147C22.5353 11.6764 22.7974 12.085 22.9913 12.541C23.186 12.9974 23.2827 13.4825 23.2827 13.9955V23.3788H0Z" fill="#63C37B"/>
<path fill-rule="evenodd" clip-rule="evenodd" d="M24.9491 19.3859V15.3076C24.9491 14.5089 25.1624 13.7867 25.5874 13.1398C26.0127 12.4937 26.5737 12.009 27.2694 11.6853C26.5737 11.3624 26.0127 10.8777 25.5874 10.2308C25.1624 9.58467 24.9491 8.86208 24.9491 8.06341V4.55562C24.9491 4.00416 25.0562 3.48588 25.2691 3.00118C25.4828 2.51648 25.7738 2.09328 26.1425 1.73198C26.5113 1.37109 26.9429 1.08585 27.4373 0.876271C27.9325 0.667503 28.4612 0.562714 29.0238 0.562714H43.1864C43.7495 0.562714 44.2782 0.667503 44.773 0.876271C45.2674 1.08585 45.6949 1.37109 46.0537 1.73198C46.4125 2.09328 46.699 2.51648 46.9119 3.00118C47.1256 3.48588 47.2322 4.00416 47.2322 4.55562V8.26288H41.1414V6.55186C41.1414 6.229 41.0298 5.95793 40.8062 5.73904C40.5829 5.52056 40.3064 5.41092 39.9761 5.41092H31.9138C31.5831 5.41092 31.3066 5.52056 31.0829 5.73904C30.8597 5.95793 30.7477 6.229 30.7477 6.55186V8.26288C30.7477 8.58655 30.8597 8.85763 31.0829 9.0757C31.3066 9.29458 31.5831 9.40382 31.9138 9.40382H38.2275V13.9672H31.9138C31.5831 13.9672 31.3066 14.0768 31.0829 14.2949C30.8597 14.5138 30.7477 14.7849 30.7477 15.1077V17.39C30.7477 17.7133 30.8597 17.984 31.0829 18.2024C31.3066 18.4213 31.5831 18.5302 31.9138 18.5302H39.9761C40.3064 18.5302 40.5829 18.4213 40.8062 18.2024C41.0298 17.984 41.1414 17.7133 41.1414 17.39V15.1077H47.2612L47.2322 19.3859C47.2322 19.9381 47.1256 20.4552 46.9119 20.9403C46.699 21.425 46.4125 21.8482 46.0537 22.2095C45.6949 22.5708 45.2674 22.856 44.773 23.0648C44.2782 23.2748 43.7495 23.3788 43.1864 23.3788H29.0238C28.4612 23.3788 27.9325 23.2748 27.4373 23.0648C26.9429 22.856 26.5113 22.5708 26.1425 22.2095C25.7738 21.8482 25.4828 21.425 25.2691 20.9403C25.0562 20.4552 24.9491 19.9381 24.9491 19.3859Z" fill="#030E2F"/>
</svg>
